<?xml version="1.0" encoding="utf-8"?>
<!-- Generator: Adobe Illustrator 21.0.0, SVG Export Plug-In . SVG Version: 6.00 Build 0)  -->
<svg version="1.1" id="Layer_1" xmlns="http://www.w3.org/2000/svg" xmlns:xlink="http://www.w3.org/1999/xlink" x="0px" y="0px"
	 viewBox="0 0 1744 503.2" style="enable-background:new 0 0 1744 503.2;" xml:space="preserve">
<style type="text/css">
	.st0{fill:#85B74F;}
</style>
<g>
	<g transform="translate(0.000000,511.000000) scale(0.100000,-0.100000)">
		<path d="M1660.7,4529c-25.3-26.6-26.6-38.6-26.6-235.4v-206.4l-357.3-3.6l-357.3-3.6l-22.9-29c-33.8-42.3-30.2-102.6,8.4-132.8
			c25.3-20.5,49.5-25.3,114.7-25.3h83.3l2.4-1030.8c3.6-1024.7,3.6-1032,29-1065.8c13.3-18.1,43.5-45.9,65.2-61.6l39.8-26.6h817.1
			h817.1l39.8,26.6c21.7,15.7,51.9,43.4,65.2,61.6c25.3,33.8,25.3,41.1,29,1065.8l2.4,1030.8h83.3c106.2,0,146,26.6,146,96.5
			c0,36.2-7.2,51.9-31.4,71.2c-31.4,24.1-47.1,25.3-373,25.3h-340.4l-6.1,205.2c-6.1,194.3-7.2,207.6-33.8,235.4l-27.8,30.2h-370.5
			H1686L1660.7,4529z M2298,4224.9v-138.8h-241.4h-241.4v138.8v138.8h241.4H2298V4224.9z M2817,2897.2v-995.8h-760.4h-760.4v995.8
			V3893h760.4H2817V2897.2z"/>
		<path d="M1637.7,3452.4c-19.3-8.4-39.8-24.1-44.6-36.2c-3.6-10.9-7.2-271.6-7.2-579.3v-560.1l31.4-24.1
			c18.1-14.5,44.6-25.3,59.1-25.3s41.1,10.9,59.1,25.3l31.4,24.1v561.3c0,344-4.8,569.7-12.1,584.2
			C1736.7,3456,1681.2,3470.5,1637.7,3452.4z"/>
		<path d="M2036,3460.8c-15.7-2.4-38.6-18.1-51.9-35c-22.9-30.2-24.1-47.1-24.1-572.1c0-370.5,3.6-550.4,13.3-569.7
			c26.6-59.1,103.8-73.6,149.7-26.6l30.2,29v554c0,533.5-1.2,555.2-24.1,584.2C2103.6,3458.5,2078.3,3468.1,2036,3460.8z"/>
		<path d="M2398.1,3452.4c-19.3-8.4-39.8-24.1-44.6-36.2c-3.6-10.9-7.2-271.6-7.2-579.3v-560.1l31.4-24.1
			c18.1-14.5,44.6-25.3,59.1-25.3c14.5,0,41.1,10.9,59.1,25.3l31.4,24.1v561.3c0,344-4.8,569.7-12.1,584.2
			C2497.1,3456,2441.6,3470.5,2398.1,3452.4z"/>
	</g>
</g>
<g>
	<path class="st0" d="M205.8,0c27.9,0,54.5,5.4,79.9,16.4c25.4,10.9,47.3,25.5,65.7,43.8s33,40.3,43.8,65.7s16.3,52.1,16.3,79.9
		c0,23.9-3.9,46.9-11.7,68.8s-18.9,41.8-33.3,59.7l129.9,129.7c4.4,4.4,6.6,9.8,6.6,16.3c0,6.6-2.2,12-6.5,16.3
		c-4.4,4.4-9.8,6.5-16.4,6.5c-6.4,0-11.9-2.2-16.3-6.6L334.2,366.7c-17.9,14.4-37.7,25.5-59.7,33.3c-21.9,7.8-44.8,11.7-68.8,11.7
		c-27.9,0-54.5-5.4-79.9-16.4c-25.4-10.9-47.3-25.5-65.7-43.8s-33-40.3-43.8-65.7C5.4,260.4,0,233.7,0,205.8s5.4-54.5,16.4-79.9
		c10.9-25.4,25.5-47.3,43.8-65.7s40.3-33,65.7-43.8C151.3,5.4,178,0,205.8,0L205.8,0z M205.8,45.7c-21.7,0-42.4,4.2-62.2,12.7
		c-19.8,8.5-36.8,19.8-51.1,34.1c-14.3,14.3-25.7,31.3-34.1,51.1c-8.5,19.8-12.7,40.5-12.7,62.2S50,248.3,58.4,268
		s19.8,36.8,34.1,51.1c14.3,14.3,31.3,25.7,51.1,34.1c19.8,8.5,40.5,12.7,62.2,12.7s42.4-4.2,62.2-12.7
		c19.8-8.5,36.8-19.8,51.1-34.1c14.3-14.3,25.7-31.3,34.1-51.1c8.5-19.8,12.7-40.5,12.7-62.2s-4.2-42.4-12.7-62.2
		c-8.5-19.8-19.8-36.8-34.1-51.1c-14.3-14.3-31.3-25.7-51.1-34.1S227.5,45.7,205.8,45.7z"/>
</g>
<g>
	<path d="M537,305.2h-40.5V188.4h-36.6v-33.1h113.6v33.1H537V305.2z"/>
	<path d="M662.7,187c3.5,0,6.8,0.3,9.9,0.8l2.3,0.4l-3.6,37.8c-3.3-0.8-7.8-1.2-13.6-1.2c-8.8,0-15.1,2-19.1,6
		c-4,4-5.9,9.8-5.9,17.3v57.1h-40.1V189h29.8l6.3,18.6h1.9c3.3-6.2,8-11.1,14-14.9C650.6,188.9,656.6,187,662.7,187z"/>
	<path d="M766.9,305.2l-7.7-15.4h-0.8c-5.4,6.7-10.9,11.3-16.5,13.7c-5.6,2.5-12.9,3.7-21.7,3.7c-10.9,0-19.6-3.3-25.8-9.8
		c-6.3-6.6-9.4-15.8-9.4-27.7c0-12.4,4.3-21.6,12.9-27.6c8.6-6,21.1-9.4,37.4-10.2l19.4-0.6v-1.6c0-9.6-4.7-14.4-14.2-14.4
		c-8.5,0-19.2,2.9-32.3,8.6l-11.6-26.5c13.5-7,30.6-10.5,51.3-10.5c14.9,0,26.4,3.7,34.6,11.1c8.2,7.4,12.3,17.7,12.3,31v76.2H766.9
		z M737.1,278.9c4.9,0,9-1.5,12.5-4.6c3.5-3.1,5.2-7.1,5.2-12v-9l-9.2,0.4c-13.2,0.5-19.8,5.3-19.8,14.6
		C725.8,275.4,729.6,278.9,737.1,278.9z"/>
	<path d="M911.7,269.5c0,12.4-4.2,21.8-12.7,28.2c-8.5,6.4-20.6,9.5-36.5,9.5c-8.6,0-16.1-0.5-22.5-1.4s-12.9-2.6-19.5-5.1v-32.1
		c6.2,2.7,13,5,20.5,6.8c7.4,1.8,14,2.7,19.8,2.7c8.7,0,13-2,13-5.9c0-2.1-1.2-3.9-3.6-5.5c-2.4-1.6-9.5-4.7-21.2-9.4
		c-10.7-4.4-18.1-9.3-22.4-14.9c-4.2-5.6-6.4-12.6-6.4-21.2c0-10.8,4.2-19.2,12.5-25.2c8.3-6,20.1-9,35.4-9c7.7,0,14.9,0.8,21.6,2.5
		c6.7,1.7,13.7,4.1,21,7.3l-10.9,25.8c-5.3-2.4-11-4.4-16.9-6.1c-5.9-1.7-10.8-2.5-14.6-2.5c-6.6,0-9.8,1.6-9.8,4.8
		c0,2,1.1,3.7,3.4,5.1c2.3,1.4,8.9,4.3,19.8,8.6c8.1,3.4,14.2,6.6,18.2,9.8c4,3.2,6.9,7,8.8,11.3C910.7,258,911.7,263.3,911.7,269.5
		z"/>
	<path d="M1007,305.2v-63.4c0-15.6-4.6-23.4-13.8-23.4c-6.6,0-11.4,2.8-14.5,8.3c-3.1,5.5-4.7,14.6-4.7,27.4v51.1h-40.1V145.6H974
		v22.7c0,10.3-0.5,21.9-1.6,35.1h1.8c3.8-6,8.4-10.3,13.6-12.7c5.3-2.5,11.4-3.7,18.4-3.7c13,0,23.1,3.7,30.3,11.2
		c7.2,7.5,10.8,18,10.8,31.4v75.6H1007z"/>
	<path class="st0" d="M1116.8,305.2H1077V155.3h88.6v32.5h-48.7v28.6h44.9v32.5h-44.9V305.2z"/>
	<path class="st0" d="M1187,160.1c0-6,1.7-10.5,5-13.4c3.3-2.9,8.7-4.4,16.2-4.4c7.5,0,12.9,1.5,16.3,4.5c3.4,3,5.1,7.5,5.1,13.3
		c0,11.8-7.1,17.6-21.4,17.6C1194.1,177.7,1187,171.9,1187,160.1z M1228.1,305.2H1188V189h40.1V305.2z"/>
	<path class="st0" d="M1329.4,305.2v-63.4c0-7.7-1.1-13.6-3.3-17.5c-2.2-3.9-5.8-5.9-10.7-5.9c-6.8,0-11.7,2.7-14.7,8.1
		c-3,5.4-4.5,14.7-4.5,27.8v50.9h-40.1V189h30.2l5,14.4h2.4c3.4-5.5,8.2-9.6,14.2-12.3c6.1-2.7,13-4.1,20.9-4.1
		c12.9,0,22.8,3.7,30,11.2c7.1,7.5,10.7,17.9,10.7,31.5v75.6H1329.4z"/>
	<path class="st0" d="M1432.9,307.2c-8.3,0-15.5-2.4-21.7-7.1c-6.2-4.7-11-11.7-14.4-20.8c-3.4-9.2-5.1-19.9-5.1-32.1
		c0-18.9,3.8-33.6,11.4-44.3s18-16,31.3-16c6.5,0,12.2,1.3,17.1,3.9c4.9,2.6,9.3,7,13.4,13.1h0.8c-1.3-9.1-1.9-18.2-1.9-27.3v-31.1
		h40.4v159.6h-30.2l-8.6-14.7h-1.5C1456.8,301.7,1446.5,307.2,1432.9,307.2z M1449.3,275.6c6.4,0,11-2,13.6-6c2.6-4,4-10.3,4.3-18.7
		v-3.2c0-10.3-1.5-17.6-4.4-21.9c-2.9-4.3-7.6-6.5-13.8-6.5c-5.3,0-9.3,2.5-12.3,7.4c-2.9,5-4.4,12-4.4,21.2c0,9,1.5,15.9,4.4,20.6
		C1439.6,273.2,1443.8,275.6,1449.3,275.6z"/>
	<path class="st0" d="M1587.9,307.2c-19.3,0-34.4-5.1-45.1-15.4c-10.7-10.3-16-24.9-16-43.9c0-19.6,5-34.7,14.9-45.2
		c9.9-10.5,24.1-15.7,42.5-15.7c17.5,0,31,4.6,40.6,13.7c9.5,9.1,14.3,22.3,14.3,39.4v17.8h-71.7c0.3,6.5,2.6,11.6,7.1,15.3
		c4.5,3.7,10.6,5.5,18.3,5.5c7,0,13.5-0.7,19.4-2c5.9-1.3,12.3-3.6,19.2-6.8v28.8c-6.3,3.2-12.8,5.4-19.5,6.7
		C1605.2,306.6,1597.2,307.2,1587.9,307.2z M1585.6,214.2c-4.7,0-8.7,1.5-11.8,4.5c-3.2,3-5,7.6-5.6,14h34.5
		c-0.1-5.6-1.7-10.1-4.8-13.4C1594.8,215.9,1590.7,214.2,1585.6,214.2z"/>
	<path class="st0" d="M1731.8,187c3.5,0,6.8,0.3,9.9,0.8l2.3,0.4l-3.6,37.8c-3.3-0.8-7.8-1.2-13.6-1.2c-8.8,0-15.1,2-19.1,6
		c-4,4-5.9,9.8-5.9,17.3v57.1h-40.1V189h29.8l6.3,18.6h1.9c3.3-6.2,8-11.1,14-14.9C1719.7,188.9,1725.7,187,1731.8,187z"/>
</g>
</svg>
