<?xml version="1.0" encoding="utf-8"?>
<!-- Generator: Adobe Illustrator 21.0.0, SVG Export Plug-In . SVG Version: 6.00 Build 0)  -->
<svg version="1.1" id="Layer_1" xmlns="http://www.w3.org/2000/svg" xmlns:xlink="http://www.w3.org/1999/xlink" x="0px" y="0px"
	 viewBox="0 0 1096 780" style="enable-background:new 0 0 1096 780;" xml:space="preserve">
<style type="text/css">
	.st0{fill:#CBDCDD;}
	.st1{opacity:0.4;fill:#FFFFFF;}
	.st2{opacity:0.2;fill:#53898B;}
	.st3{opacity:0.4;fill:#896A39;}
	.st4{fill:#D9B97E;}
	.st5{fill:#BC9A62;}
	.st6{opacity:0.4;fill:#708D48;}
	.st7{fill:#9ECF73;}
	.st8{fill:#82A457;}
	.st9{fill:#88D2D9;}
	.st10{fill:#6FABB0;}
	.st11{opacity:0.3;fill:#315D66;}
	.st12{fill:#649BAD;}
	.st13{fill:#497A88;}
</style>
<rect class="st0" width="1096" height="780"/>
<g>
	<circle class="st1" cx="258.6" cy="244.3" r="177"/>
	<circle class="st1" cx="802.3" cy="300.5" r="233.2"/>
	<circle class="st1" cx="469.7" cy="452" r="295.8"/>
	<circle class="st1" cx="198.2" cy="417.1" r="116.6"/>
	<circle class="st1" cx="853.1" cy="547.6" r="161.4"/>
	<path class="st2" d="M840.8,600.7c0,0,27.7,7.6,32.5,8.9c4.8,1.3,18-9.5,16.9-5.5c-1.1,4-10.8,40.2-10.8,40.2s-26.5-4.7-38.6-5.3
		c-12.1-0.7-147.1-18.2-147.1-18.2L666,581.7L840.8,600.7z"/>
	<g>
		<path class="st3" d="M315,402.9c0,0,101.9,2.8,109,8.5c7.2,5.7,4.8,12.8,4.8,12.8s-69.6,34.1-99.5,43.1
			c-29.9,9-183.7-22.8-177.2-35.6c6.5-12.8,52.5-15.2,54.4-15.2C208.3,416.6,315,402.9,315,402.9z"/>
		<g>
			<path class="st4" d="M260.4,163c0,0-10.4-5-11.8,0c-1.4,5-8.2,6.4-9.6,8.9c-1.4,2.5-12.5,6.1-18.2,11.8
				c-5.7,5.7-24.3,9.3-35.3,13.9c-11.1,4.6-23.9,7.5-25.7,12.5c-1.8,5-26.1,48.2-26.1,53.2c0,5,2.1,10.7,2.5,21.4
				c0.4,10.7,0,23.6,0,30.7c0,7.1,12.9,38.2,13.2,39.3c0.4,1.1,3.6,12.1,3.6,21.8c0,9.6,0.7,15.7-0.4,19.3
				c-1.1,3.6-3.9,6.1-0.4,12.9c3.6,6.8,7.5,13.6,15.4,18.9c7.9,5.4,53.2,20.7,77.5,27.5c24.3,6.8,31.4,3.6,31.4,3.6l3.2-3.6
				c0,0,14.6,0,16.8-2.5c2.1-2.5,7.9-6.4,7.9-6.4s12.9-7.9,19.6-10c6.8-2.1,8.6-5.4,8.6-5.4s9.6-1.1,18.6-2.9
				c8.9-1.8,53.9-17.5,54.6-19.6c0.7-2.1,0-4.6,0-4.6l2.1-2.9c0,0,5.4,0,10-2.9c4.6-2.9,11.4-16.1,17.9-25.7
				c6.4-9.6,5.4-24.3,5-31.4c-0.4-7.1-9.3-63.9-12.5-65.7c-3.2-1.8-5.7-8.2-5.7-8.2s-16.4-31.1-37.1-46.1c-20.7-15-71-51.1-71-51.1
				s-12.2-6.8-26.1-5.4C274.3,165.9,260.4,163,260.4,163z"/>
			<path class="st5" d="M285.6,203.4c-13.4-14.1-30.1-31.7-37.3-39.5c-0.4,0.8-0.9,1.5-1.4,2.1c1.6,4.6,3.8,10.7,5.2,14.1
				c2.4,6,26.4,29.5,42.8,46.2c16.4,16.7,29,37.4,31.7,38.8c2.6,1.4-13.6-33.8-13.6-33.8S303,221.7,285.6,203.4z"/>
			<g>
				<path class="st5" d="M303,241.7c-11.9-14.8-52.8-58.3-52.8-58.3l-5.5-5.2v-10.3l0,0c-1,0.7-2,1.2-2.9,1.8v5
					c0,0,23.8,41.9,41.7,57.4c17.9,15.5,41.7,34.8,41.7,34.8S314.9,256.4,303,241.7z"/>
				<path class="st5" d="M237.5,177.2l2.1-6.1c-0.3,0.3-0.6,0.6-0.7,0.9c-0.7,1.2-3.4,2.5-6.6,4.2l0.5,4.8c0,0-8.1,19-25.9,34.7
					c-17.9,15.7-54.7,49.3-54.7,49.3s34,4.2,40,1.1c6-3.1,23.3-42.8,24-46.4c0.7-3.6,9.8-11.7,10.7-13.3c1-1.7-10.7,55.5-10.7,55.5
					l4.7-1.2l10.3-58.3l6.7-10.2l1.4,7.6l-4,5.5c0,0-4,39-4.5,48.1c-0.5,9-3.1,18.8-7.4,25.2c-4.3,6.4-1.7,6.2-1.7,6.2
					s24.8-17.4,25.5-20.7c0.7-3.3,7.9-11.7,9.3-7.1c1.4,4.5,17.9,22.8,17.9,22.8s0.7-7.9,0.7-8.6c0-0.7-12.9-11.7-18.8-23.3
					C250.1,236.2,237.5,177.2,237.5,177.2z"/>
			</g>
			<path class="st5" d="M213.1,188.2c-8.1,3.4-19.8,6.1-27.7,9.5c-11.1,4.6-23.9,7.5-25.7,12.5c-1.6,4.4-20.4,38.1-25,49.7
				L213.1,188.2L213.1,188.2z"/>
			<path class="st4" d="M260.6,169.6c-0.2-1.2,3.1-33.3,8.1-45c5-11.7,8.8-26.2,8.6-30.7c-0.2-4.5,1.7-11.7,2.4-11.9
				c0.7-0.2,19,1.4,21.7,8.1c2.6,6.7-3.1,19-2.1,23.1c1,4,6.4,5,5,7.9c-1.4,2.9,1.4,13.3,0.2,18.3c-1.2,5-7.4,17.6-10.5,23.1
				c-3.1,5.5-12.6,11.2-12.6,11.2L260.6,169.6z"/>
			<path class="st5" d="M351.8,342.8L207.5,291c0,0-48.6,0-49.5,0c-1,0-2.4,4.8-2.4,4.8l199,54.3l-149.9-29.5h-61.9v10l38.6,40.9
				l60.5-2.9l-56.6-10.5l-11.3-10l58.4,6.7l50.4,4.8l-40.8-13.3l-25.7-15l134.2,29.3l62.4-38.6l-49,18.1L351.8,342.8z"/>
			<path class="st5" d="M267.9,176.9c0,0,23.2,3.9,42.8,15.4c19.6,11.4,60.7,43.6,60.7,43.6l-10,7.5l-65.7-42.8l64.3,55.3
				C360,255.8,274.2,194.2,267.9,176.9z"/>
			<path class="st5" d="M385.3,220.9c-20.7-15-71-51.1-71-51.1s-7.4-4.1-17.3-5.3l-3.4,4.9l14.6,4.2l70,57.6l28.5,11.5v0
				C400.7,234.8,393.3,226.6,385.3,220.9z"/>
			<polygon class="st5" points="423.5,275.5 400.7,265.1 329.3,268.7 376.4,287.3 393.5,276.2 			"/>
			<polygon class="st5" points="432.8,337.3 368.9,371.4 267.9,369.7 366.4,385.8 			"/>
			<g>
				<path class="st5" d="M304.2,121c1.4-2.9-4-3.8-5-7.9c-1-4,4.8-16.4,2.1-23.1c-0.9-2.3-3.6-4-6.8-5.2l0.8,7.9l3.6-1.6l-10.7,44.8
					l7.9-22.5l2.8,4.6l-12,36.3l6.7-5l-8,15.3l-7.7,0.7l7.5-21.2l-10.5,15.1l-3-2.1l5.2-50c0,0,9.1-10.6,10.2-11.4
					c1.2-0.8,0-3.4,0-3.4l-9.6,9.1l2-6.7l7.2-7.5l-1.5-0.5l-8.1,6.7c0,0.2,0,0.3,0,0.5c0.2,4.5-3.6,19-8.6,30.7
					c-5,11.7-8.3,43.8-8.1,45l20.7,4c0,0,9.5-5.7,12.6-11.2c3.1-5.5,9.3-18.1,10.5-23.1C305.6,134.3,302.7,123.9,304.2,121z"/>
				<path class="st5" d="M278.2,85.9c-0.5,2.1-0.9,4.7-0.9,7l5.4-7.4v-1.3L278.2,85.9z"/>
			</g>
			<path class="st5" d="M296.1,441.9h-16.4l30.3-19.1l2.1-10.5l-46.8,28.6l-46.8-20l38.9,33.2l-104.8-59c-0.1,0.3-0.1,0.5-0.2,0.8
				c-1.1,3.6-3.9,6.1-0.4,12.9c3.6,6.8,7.5,13.6,15.4,18.9c7.9,5.4,53.2,20.7,77.5,27.5c24.3,6.8,31.4,3.6,31.4,3.6l3.2-3.6
				c0,0,14.6,0,16.8-2.5c2.1-2.5,7.9-6.4,7.9-6.4s12.9-7.9,19.6-10c6.8-2.1,8.6-5.4,8.6-5.4s9.6-1.1,18.6-2.9
				c8.9-1.8,53.9-17.5,54.6-19.6c0.7-2.1,0-4.6,0-4.6l-61.1,11.8l62.1-18.6l6-7.9l-64.1,12.9L296.1,441.9z"/>
			<g>
				<path class="st5" d="M427,279.5l-47.6,32.8l44.2-9l5.8,11.4l-55.7,46.8l59.1-30.3l8,23.4c0.4-5.4,0.1-10.4-0.1-13.8
					c-0.4-7.1-9.3-63.9-12.5-65.7c-3.2-1.8-5.7-8.2-5.7-8.2s-4.2-7.9-11-17.7l0,0L427,279.5z"/>
				<path class="st5" d="M427,369.5c-1.4,0.5-19.8,9.5-19.8,9.5l12.2,17.7c4.5-4.4,10.5-15.8,16.3-24.4c3.4-5.1,4.7-11.6,5.1-17.6
					C440.6,354.9,428.4,369,427,369.5z"/>
			</g>
			<path class="st5" d="M277.7,389l-67.4,7.7l-59.9-37.8l0,0c1.1,4.3,2.5,11.3,2.5,17.7c0,4.4,0.2,8.1,0.2,11.2l50.6,26.1
				l-17.6-14.3l86.2,24.7l5.5-4.2L238,402.3l43.6-8.6L277.7,389z"/>
		</g>
	</g>
	<g>
		<path class="st6" d="M612.9,443.8l-52.6,11.4l-9.7,4.7l3.4,27.9l58.9,35.5h41.2c0,0,204.6-12.1,206.7-19.9
			c2.1-7.8,6.7-19.9,6.7-19.9l-78.5-14.9L612.9,443.8z"/>
		<path class="st7" d="M701.9,101.3l-36.8,9.6l-11.7,5.9c0,0-64.5,8-66,9.1c-1.6,1.1-17,27.2-21.3,33c-4.3,5.9-6.4,23.4-6.4,23.4
			l-4.8,28.4c0,0-2.1,55.2,0,57.3c2.1,2.1-4.3,34.1-4.3,34.1v131c0,0,20.2,29.8,18.6,32c-1.6,2.1-4.8,8-4.8,8s28.8,28.2,41.5,28.8
			c12.8,0.5,24-3.2,24-3.2s75.6,13,112.9,11.5c37.3-1.4,108.7-32.8,111.3-44.6c2.7-11.7,6.9-60.2,10.1-93.2
			c3.2-33,3.2-66.6,3.2-66.6s-5.3-7.4-5.9-19.1c-0.5-11.7,1.6-119.8,1.6-119.8l-6.9-9.6c0,0-10.1,3.7-10.1,0.5
			c0-3.2,2.7-9.1,2.7-9.1s-18.6-16.1-34.6-25.4c-16-9.3-34.1-14.6-58.1-18.3C732.2,101.3,701.9,101.3,701.9,101.3z"/>
		<path class="st7" d="M639,109.7c2.2,0,14.8,2.2,21.7,3.4l4.4-2.2l36.8-9.6c0,0,30.4,0,54.3,3.7c14.9,2.3,27.6,5.3,38.9,9.4
			c2.7-3.8,10.7-14.8,11.5-17.8c1-3.6-11.6-14.8-11.6-14.8l-15.2-0.7c0,0-0.8-2.4-3.9-7.1c-3.1-4.7-6.8-7.7-11.7-9.3
			c-4.9-1.7-33.9-3.2-34.4-3.6c-0.6-0.4,0-2.4,0-2.4s-9.3-2.2-10.3-2.1c-1,0.1-8.7,15.9-8.7,15.9l-5-3.1c0,0-8.6-1.4-9.1-1.4
			c-0.4,0-8.1,3.6-8.1,3.6s-13.3-4.7-22.5-6c-9.2-1.3-18.3,6.1-18.3,6.1s-7.1-0.1-7.7,0c-0.6,0.1-10.5,19.5-10.5,19.5h-3.9
			c0,0-2.5,7.5-2.5,7.9C623.3,99.6,636,109.7,639,109.7z"/>
		<path class="st8" d="M702.4,96.8l-23.2,4.5l-5.9,9.1l-50.1,38.4l4.8,1.9l52.7-36.2l10.1-1.1l-52.2,33c0,0,2.9,2.1,4.3,2.4
			c1.3,0.3,49-34.3,49-34.3l-39.4,34.3l-29.3,7.7l-35.4,35.2H610l53.3-39.7l39.2-43.1l1.3,5.7l-11.5,14.8l-43.1,46.9l4.3,6.4
			L684,158l10.7-25.6l9.1,8.3l5.3-3.5v33.3l12.5,11.2l-4.3-51.1l9.9,29l-2.1,55.9l14.4-4v-46.9l-16.8-39.9c0,0,25,38.4,25.8,38.4
			c0.8,0,5.1-3.7,5.1-3.7l-28-51.1l36.5,47.9l55.7,39.7l-47.1-59.9l-40.2-28l32.2,14.6l-16.2-14.1l30.1,20l66.6,39.4l-15.7-26.6
			l-36.5-21.3l-30-14.2l-36.3-9H702.4z"/>
		<polygon class="st8" points="758.9,166.8 750.3,168.2 745,169.7 745,213.7 758.9,228.6 799.1,232.9 794.6,198 		"/>
		<path class="st8" d="M867.5,305.8c0,0-5.3-7.4-5.9-19.1c-0.4-8.2,0.6-63.4,1.1-95.9c-2.5-4.6-4.2-7.6-4.2-7.6l-24.1,78.1
			l32.5,68.9C867.5,315.8,867.5,305.8,867.5,305.8z"/>
		<path class="st8" d="M745,249.9c0,0-42.6,17-50.1,17c-7.5,0-74.9,1.4-74.9,1.4s23.4,12.4,24.5,12.4c1.1,0,36.6,4.6,36.6,4.6
			L658,290l40.8,9.2l-88.1-3.2l-27.3-19.9c0,0,21,25.2,22.4,26.6c1.4,1.4,38.7,14.2,38.7,14.2l32.7,2.5l76-4.3l-4.6,9.9h-49
			l-4.3,13.1l-42.6-8.9l33,22.4l-7.5,5.7l-57.9-28.8l53.6,38.7l-7.1,2.5h-77.4l14.6,11.4h87.7l-37.6,13.1l-60-2.1l68.5,21.7
			l82.4,3.6v-4.3l-62.9-17l60,10.3l2.8-3.2l-48.3-15.6l48.3,2.1l63.9-25.9l-1.8-4.6l-67.5,21.3l-26.6-2.5l12.8-12.4l36.6-6.4
			l-2.5-3.2l-40.5,0.4l2.5-7.1l65.7-15.6l-34.1-2.5l4.3-11.7l39.4-19.5l-43,8.9l-34.9-1.1l-6.7-7.1l49-9.9l-8.5-5.7l-46.5,5.3
			l40.5-29.8l7.8-13.8L745,249.9z"/>
		<path class="st8" d="M854.2,465.6c1.8-7.7,4.2-31.4,6.6-56.1l-13.5,33.2l-51.1,19.2v-7.5L767,472.2l-52.2-8.2l65.7-22.4v-5
			l-125.4,30.9l-43.3-2.8l52.2-14.2l2.1-7.8l-85.9,16l-29.7-30.6v5c0,0,20.2,29.8,18.6,32c-1.6,2.1-4.8,8-4.8,8s28.8,28.2,41.5,28.8
			c12.8,0.5,24-3.2,24-3.2s75.6,13,112.9,11.5C780.2,508.8,851.5,477.4,854.2,465.6z"/>
		<path class="st8" d="M563.6,401.2c0,0,0-59.3,0-60.7c0-1.4,16.3,15.6,16.3,15.6l5.3-2.5c0,0-21.7-29.5-21.7-30.5
			s6.4-58.9,6.4-58.9l21.3,4.6h11l-26.6-18.1c0,0,7.1-20.2,7.8-21.7c0.5-1-17.6-12.5-28.4-19.3l-0.2,1c0,0-2.1,55.2,0,57.3
			c2.1,2.1-4.3,34.1-4.3,34.1v109.1c14.7,8,46.7,24.4,46.7,24.4l24.9-4.6L563.6,401.2z"/>
		<path class="st8" d="M587.4,125.8c-1.6,1.1-17,27.2-21.3,33c-2.9,4-4.8,13.3-5.7,18.9c3.5,4.5,7.6,9.3,7.6,9.3l5.9-32.5l12.3-14.6
			l-9.1,14.4l3.7,7.2l10.1-12.3l52.3-31.2C624.8,120.4,588.5,125,587.4,125.8z"/>
		<path class="st8" d="M756.2,105c14.9,2.3,27.6,5.3,38.9,9.4c2.7-3.8,10.7-14.8,11.5-17.8c1-3.6-11.6-14.8-11.6-14.8l-15.2-0.7
			c0,0-0.7-1.9-2.9-5.6c-8.8,0.8-18.4,1.8-18.4,1.8l17.9,6.6c0,0-24.3-3.9-25-3.9c-0.7,0-24.5,3.6-24.5,3.6s31.1-15.5,32-16.2
			c0.9-0.7-30.2,7.7-30.2,7.7l-13.1,16.2l-16.7-14.5h-1.3L708.2,92c0,0-18.9-8.7-25.3-11.2c-6.4-2.5-13.6-2.5-13.6-2.5l12.3,5.4
			L704,95.2c0,0-23.4-8.9-24.1-9.7c-0.7-0.8-38.7-0.8-38.7-0.8l-4.6,14.6l-12.7,0.5c2.4,2.2,12.5,9.9,15.2,9.9
			c2.2,0,14.8,2.2,21.7,3.4l4.4-2.2l36.8-9.6C701.9,101.3,732.2,101.3,756.2,105z"/>
	</g>
	<g>
		<path class="st9" d="M876.6,485.9l-4.2-32.8l-3.7-10.8c0,0,0.1-56.7-0.6-58.2c-0.7-1.5-21.3-17.6-25.8-21.9
			c-4.5-4.3-19.3-8-19.3-8l-23.7-7.2c0,0-46.8-7.7-48.8-6.1c-2,1.6-28.6-7.3-28.6-7.3l-111.6-13.9c0,0-27.6,14.4-29.2,12.8
			c-1.6-1.6-6.3-5-6.3-5s-27.1,21.9-29,32.9c-1.8,11,0.1,21.1,0.1,21.1s-19.2,64.1-22,96.6c-2.8,32.4,16.3,97.6,26,101.1
			c9.7,3.5,50.5,12.4,78.3,18.6c27.8,6.3,56.4,9.8,56.4,9.8s6.9-3.8,16.9-3c10,0.8,101.9,14.1,101.9,14.1l8.9-5c0,0-2.1-9.2,0.6-8.8
			c2.7,0.3,7.4,3.3,7.4,3.3s15.7-14.4,25.3-27.3c9.6-12.9,16.1-28,21.8-48.3C873.4,512.2,876.6,485.9,876.6,485.9z"/>
		<path class="st9" d="M876.2,430.6c-0.2,1.9-3.5,12.6-5.2,18.4l1.4,4l4.2,32.8c0,0-3.3,26.3-9,46.7c-3.6,12.7-7.4,23.3-12.2,32.7
			c2.9,2.8,11.5,10.8,14,11.8c3,1.2,13.8-8.5,13.8-8.5l2.2-13.1c0,0,2.1-0.5,6.5-2.6c4.4-2.2,7.3-5.1,9.2-9.2c1.9-4,6.4-29,6.8-29.4
			c0.4-0.4,2,0.3,2,0.3s2.9-7.9,2.9-8.7c0-0.8-12.6-9.2-12.6-9.2l3.2-4c0,0,2.1-7.3,2.2-7.7c0-0.4-2.2-7.4-2.2-7.4s5.5-11,7.5-18.8
			c2.1-7.8-3.3-16.5-3.3-16.5s0.9-6.1,0.8-6.6c-0.1-0.5-15.5-11.1-15.5-11.1l0.4-3.4c0,0-6.1-3-6.5-3
			C886.5,418,876.6,427.9,876.2,430.6z"/>
		<path class="st10" d="M880.4,486.8l-1.4-20.5l-7.1-6l-27.3-47.4l-2.1,4l25.1,49.5l-0.1,8.9l-22.5-48.7c0,0-2.1,2.3-2.5,3.4
			c-0.4,1.1,23.9,46.1,23.9,46.1l-25-37.8l-3.4-26.2L812,377.6l-2.4,19.1l28.1,50.3l32.5,38.5l-5,0.6l-11.4-11.5l-35.3-42.3l-5.9,3
			l17.6,29.1l20.6,11.9l-8,7l2.4,5l-28.4-3.5l-10.9,9.7l44,1.7l-25.8,5.5l-47.4-7.8l1.9,12.9l39.9,5l35.8-10.3
			c0,0-35.4,17.6-35.4,18.3c-0.1,0.7,2.6,4.8,2.6,4.8l46.6-18.8l-44.8,26.5l-39.8,44l56.1-34.5l28.1-31.9L852,536.2l13.8-12.6
			l-20.2,23.9l-40.7,53.5l24.4-10.8l22.1-29.3l15.3-24.5L878,506L880.4,486.8z"/>
		<polygon class="st10" points="814.7,528.3 814.5,520.8 813.7,516 776.3,511.4 762.1,521.8 754.1,556.1 784.3,555.9 		"/>
		<path class="st10" d="M684.6,607.7c0,0,6.9-3.8,16.9-3c7,0.5,53.9,7.2,81.6,11.1c4.2-1.7,6.9-2.8,6.9-2.8l-63.9-29.2L664,604.7
			C676.2,606.6,684.6,607.7,684.6,607.7z"/>
		<path class="st10" d="M745.4,507.5c0,0-9.9-38.7-9.1-45.2c0.8-6.5,6.8-65,6.8-65s-13.1,19-13.2,19.9c-0.1,0.9-7.9,31.2-7.9,31.2
			l-1.4-20.5l-12.3,34.4l12.2-75.9l19.9-21.6c0,0-23.7,15.5-25.1,16.6c-1.4,1.1-16.3,32-16.3,32l-5.6,28l-4.5,66.3l-8-5l5.3-42.4
			l-10.7-5.1l12.1-36L665,445.4l-4-7.1l30.7-47.1l-38.7,42.3l-1.4-6.4l8.3-67l-11.2,11.4l-9.4,75.9l-7.1-34l8.3-51.7l-25.8,57.1
			l-11.9,71l3.6,0.4l21.3-52.6l-15.2,50.9l2.4,2.8l18.5-40.2l-7,41.6l15.2,58.1l4.1-1l-10.9-60.7l5-22.8l9.2,12.4l1.5,32.3l3-1.8
			l4.1-35.1l5.8,2.9l6.2,58.5l5.8-29.3l9.5,4.9l12.4,36.2l-2.9-38.1l4.7-30.1l6.8-5l3.2,43.5l5.8-6.8l0.5-40.8l21.1,38.2l11,8.2
			L745.4,507.5z"/>
		<path class="st10" d="M549.9,579.3c6.4,2.3,26.3,7,47.1,11.6l-26.9-15.2l-10.8-46.3l6.4,0.8l-12-27.1l12.6-44.3l12,59.3l4.2,0.5
			l-12.8-111.8l7.1-37.2l6.5,46.7l6.4,2.7l-4.4-76.1l29.2-22.4l-4.3-0.5c0,0-27.6,14.4-29.2,12.8c-1.6-1.6-6.3-5-6.3-5
			s-27.1,21.9-29,32.9c-1.8,11,0.1,21.1,0.1,21.1s-19.2,64.1-22,96.6C521.1,510.6,540.2,575.7,549.9,579.3z"/>
		<path class="st10" d="M636.1,334.4c0,0,50.5,6.3,51.7,6.4c1.2,0.1-15.1,12.5-15.1,12.5l1.5,4.9c0,0,27.4-15.6,28.3-15.5
			c0.9,0.1,49.5,11.8,49.5,11.8l-6.2,18l-1.2,9.5l18.3-21.1c0,0,16.5,8.3,17.6,9.1c0.8,0.5,12.6-13.9,19.5-22.6l-0.8-0.3
			c0,0-46.8-7.7-48.8-6.1c-2,1.6-28.6-7.3-28.6-7.3L629,322.1c-8.4,11.9-25.8,37.8-25.8,37.8l1.3,22L636.1,334.4z"/>
		<path class="st10" d="M868.1,384.1c-0.7-1.5-21.3-17.6-25.8-21.9c-3.1-2.9-10.8-5.5-15.5-7c-4.2,2.6-8.8,5.6-8.8,5.6l27,8.5
			l11.2,12.2l-11.3-9.4l-6.5,2.5l9.3,10.1l21,48.5C868.7,417.1,868.6,385.2,868.1,384.1z"/>
		<path class="st10" d="M867.6,532.5c-3.6,12.7-7.4,23.3-12.2,32.7c2.9,2.8,11.5,10.8,14,11.8c3,1.2,13.8-8.5,13.8-8.5l2.2-13.1
			c0,0,1.7-0.4,5-1.9c0.3-7.7,0.5-16.2,0.5-16.2l-7.5,14.8c0,0,6-20.6,6-21.2c0.1-0.6-0.4-21.6-0.4-21.6s9.9,28.5,10.4,29.4
			c0.5,0.8-3.3-26.9-3.3-26.9l-12.4-13.1l14.1-12.9l0.1-1.1l-14.1,7.7c0,0,9.5-15.5,12.3-20.8c2.8-5.3,3.6-11.5,3.6-11.5l-5.9,10.1
			l-12.3,18.1c0,0,10.1-19.3,10.8-19.8c0.7-0.5,4.9-33.5,4.9-33.5l-12-5.6l0.9-11c-2.1,1.9-9.8,9.8-10.1,12.2
			c-0.2,1.9-3.5,12.6-5.2,18.4l1.4,4l4.2,32.8C876.6,485.9,873.4,512.2,867.6,532.5z"/>
	</g>
	<path class="st5" d="M458.5,482.4C458.4,482.4,458.4,482.4,458.5,482.4C458.4,482.5,458.4,482.4,458.5,482.4z"/>
	<g>
		<path class="st11" d="M561,616.9c0,0,157.5,6.4,159.6,16c2.1,9.6-33.4,18.9-79.8,45.7c-46.4,26.9-125.3,72.9-160.9,66.3
			c-35.6-6.6-108.5-81.1-121.1-93.7c-12.6-12.6-3.3-31.2-15.3-38.6c-12.1-7.4-28.7-33.1-22.3-37.3C327.5,571.2,561,616.9,561,616.9z
			"/>
		<g>
			<path class="st12" d="M500.7,730.9c0,0-35.5,1.4-41.9-4.3c-6.4-5.7-102.3-90.2-102.3-90.2l-6.4-27.7c0,0-29.1-15.6-29.1-33.4
				s10.7-96.6,10.7-96.6s13.5-42.6,27.7-49c14.2-6.4,27.8-22.7,27.8-22.7s8.4-25.6,12-28.4c3.6-2.8,21.3-17,21.3-17
				s7.8-19.9,12.1-22c4.3-2.1,14.5-17,14.5-17l49.5,19.9l7.5-12.1c0,0,26.6-16.4,40.1-11.4c13.5,5,67.5,54,67.5,54
				s57.1,54.7,71.5,80.3c14.4,25.6,29.3,54,30.8,93.7c1.4,39.8,15,83.1,5,87.4c-10,4.3-64,15.6-86.7,29.8
				C609.4,678.4,532.3,732,500.7,730.9z"/>
			<path class="st13" d="M604.4,446.5l28.9,49l-4.8-30.9l-45.8-89.8l32,27v-9.2l-30.5-24.1l27.1,4.4c-4-3.7-54.3-49-67.2-53.8
				c-13.5-5-40.1,11.4-40.1,11.4l-7.5,12.1L447,322.5c0,0-10.2,14.9-14.5,17c-1.4,0.7-3.1,3.3-4.9,6.4l67.5,5.2l-65.1,7.5l5,6.9
				l50.1-6.9l-73.1,16.7l-18.6,22.4l93.4-32.2l-22,13l-77.7,46.9h12.3l100.1-57.2L394.2,581.4l-0.4,17.8c0,0,5.3,2.5,5.7,0
				c0.4-2.5,88.8-195.3,88.8-195.3l-84.9,206.3c0,0,9.2,6.4,11,6.7c1.8,0.4,83.5-236.5,83.5-236.5l11.4-6c0,0-28.8,167.6-27.7,167.6
				c1.1,0,10.7,1.1,10.7-0.7c0-1.8,25.2-166.2,25.2-166.2l4.3,73.2l28,82.7l3.9-12.8l-17-71.4l-14.8-81.2l14.1,47.1l17.8,23.1
				L543,396.8l-21.2-38l66.3,82.1c0,0-3.2-16.3-3.2-17.8c0-1.4-59.1-66.8-59.1-66.8l51.3,16.3L604.4,446.5z"/>
			<path class="st12" d="M509.4,363l-14.3-10.7l1.4-9.9l7.5-12.1l14.9-7.5c0,0-1.1,7.9-2.9,13.6C514.2,342.1,509.4,363,509.4,363z"
				/>
			<path class="st13" d="M507.5,353.4c-0.4,0.9,0.5-15.2,0.5-15.2l-3,11.6c0,0,0-10.1,0-11.6c0-1.5-4,7.7-4,7.7l-0.3-10.4l-4.3,6.9
				l-1.4,9.9l14.3,10.7c0,0,4.9-21,6.6-26.6c1.8-5.7,2.9-13.6,2.9-13.6l-5,2.5C511.9,333.4,507.9,352.7,507.5,353.4z"/>
			<path class="st12" d="M431.7,279.2c-2.7-1.6-13.7-6-18.5-3.3c-4.8,2.7-8,17.2-3.7,23.4c4.3,6.2,34.1,26.1,34.1,26.1l53.3,22.4
				l7.2-17.4C504,330.3,434.3,280.8,431.7,279.2z M417.6,294.8c-2.7-3.1,4.1-6.9,9.2-6.9c5.1,0,21.7,16.4,21.7,16.4
				S420.3,297.9,417.6,294.8z"/>
			<path class="st12" d="M633.4,337.9c-0.3-7.2-12.3-18.6-12.5-19.9c-0.3-1.2-37.8-2.8-60.2-2.5c-22.4,0.3-41.8,7.3-41.8,7.3
				l-4.6,20.1c0,0,29.4,0.3,54.2,7.5c24.8,7.2,50.6,15.2,53.8,15.2C625.4,365.6,633.6,345.1,633.4,337.9z M600.6,345.7
				c-11.2-1.7-28.5-9.1-28.5-9.1s29.6-2.9,37.3,0c7.7,2.9,10.4,14.6,10.4,14.6S611.8,347.4,600.6,345.7z"/>
			<path class="st13" d="M451.8,328.8l45,18.9l6.1-14.8c-14.6-10.3-63.6-45.1-63.6-45.1l55.8,47.9c0,0-42.4-27.7-46.5-28.4
				c-4.1-0.7-35-12.2-35-12.2s-2,1.9-1.4,2.9c0.5,1.1,30.6,26.6,30.6,26.6c0,0,0,0,0,0L451.8,328.8z"/>
			<path class="st13" d="M633.4,337.9c-0.3-7.2-12.3-18.6-12.5-19.9c0,0-0.1-0.1-0.1-0.1c0,0-0.1,0-0.1,0c-0.1,0-0.1,0-0.2-0.1
				c-0.1,0-0.2,0-0.2-0.1c-0.1,0-0.2,0-0.3-0.1c-0.1,0-0.3,0-0.4-0.1c-0.1,0-0.2,0-0.3-0.1c-0.2,0-0.3,0-0.5-0.1c-0.1,0-0.2,0-0.4,0
				c-0.2,0-0.4,0-0.7-0.1c-0.1,0-0.3,0-0.4,0c-0.3,0-0.5-0.1-0.8-0.1c-0.1,0-0.3,0-0.4,0c-0.3,0-0.7-0.1-1-0.1c-0.1,0-0.2,0-0.4,0
				c-0.4,0-0.8-0.1-1.2-0.1c-0.1,0-0.2,0-0.3,0c-0.4,0-0.9-0.1-1.4-0.1c-0.1,0-0.2,0-0.3,0c-0.5,0-1-0.1-1.5-0.1c-0.1,0-0.2,0-0.2,0
				c-0.6,0-1.2-0.1-1.8-0.1c0,0,0,0-0.1,0c-12.8-0.7-32.3-1.2-46.4-1.1c-3,1.1-5.9,2.2-6.4,2.3c2-0.1,50,2.2,50,2.2v1.3h-37.8
				l2.9,3.2l44.5,4.8v1.3h-36.5l-4.4,5.7h0c6.4-0.6,29-2.4,35.6,0.2c7.7,2.9,10.4,14.6,10.4,14.6s-8-3.8-19.2-5.5
				c-2.3-0.3-4.9-1-7.6-1.7l-23.3-3.5l-0.5-5.3l-31.7-1.4l-21.5,1.4l-1.8,7.7c0,0,29.4,0.3,54.2,7.5c24.8,7.2,50.6,15.2,53.8,15.2
				C625.4,365.6,633.6,345.1,633.4,337.9z"/>
			<path class="st13" d="M704.1,496.9L689.3,564l-35.7,17c0,0-10.7,53.3-11.7,57c-1.1,3.7-78.3,29.8-78.3,29.8l32.4-49l34.8-42.6
				l-175,24l13.6,82.6l-41-44.2L374,627.9l-5.9-52.2l-29.6-81.5l-6.1,11.2c0,0,7.5,57,5.9,56.5c-0.5-0.2-6.2-10.6-13.8-25
				c-1.9,16.5-3.4,31.8-3.4,38.5c0,17.8,29.1,33.4,29.1,33.4l6.4,27.7c0,0,95.9,84.5,102.3,90.2c6.4,5.7,41.9,4.3,41.9,4.3
				c31.6,1,108.7-52.6,131.4-66.8c22.7-14.2,76.7-25.6,86.7-29.8c10-4.3-3.6-47.6-5-87.4C713.1,528,709.4,511.7,704.1,496.9z"/>
		</g>
	</g>
</g>
</svg>
